# xmcd CD database file
#
# Track frame offsets:
#	150
#	14209
#	27647
#	41607
#	56942
#	71509
#	79182
#	86973
#	98092
#	103736
#	111892
#	120884
#	129871
#
# Disc length: 1844 seconds
#
# Revision: 0
# Processed by: cddbd v1.5.2PL0 Copyright (c) Steve Scherf et al.
# Submitted via: CDex 1.51
#
DISCID=b207320d
DTITLE=Creepy - The Triple EP
DYEAR=2007
DGENRE=Salsa
TTITLE0=The Lost
TTITLE1=You're Dead
TTITLE2=Torn to Zero
TTITLE3=Delay
TTITLE4=Rise of Revenge
TTITLE5=Burn Me
TTITLE6=Renegade
TTITLE7=Out of Sight Out of Mind
TTITLE8=Powerless
TTITLE9=Blitzwing
TTITLE10=Lamewad
TTITLE11=Teenage Burnout
TTITLE12=Bombshell
EXTD=YEAR: 2007
EXTT0=
EXTT1=
EXTT2=
EXTT3=
EXTT4=
EXTT5=
EXTT6=
EXTT7=
EXTT8=
EXTT9=
EXTT10=
EXTT11=
EXTT12=
PLAYORDER=
